<?xml version="1.0" encoding="UTF-8"?>
<svg xmlns="http://www.w3.org/2000/svg" version="1.1" viewBox="0 0 16 16">
  <!-- Generator: Adobe Illustrator 28.6.0, SVG Export Plug-In . SVG Version: 1.2.0 Build 709)  -->
  <g>
    <g id="Layer_1">
      <path d="M15.632,7.15c-.284-.385-.668-.577-1.152-.577H4.327c-.312,0-.595.093-.85.279-.255.186-.43.433-.525.739l-1.535,5.145h-.153V3.506c0-.071.023-.129.068-.175s.104-.068.175-.068h3.85l1.579,1.579h7.484c.168,0,.309-.057.422-.17.113-.113.17-.254.17-.422s-.057-.309-.17-.422c-.113-.113-.254-.17-.422-.17h-6.999l-1.163-1.163c-.13-.13-.282-.231-.458-.305-.176-.074-.359-.111-.549-.111H1.506c-.384,0-.717.142-1.001.426S.079,3.122.079,3.506v9.033c0,.384.134.71.403.979.269.269.595.403.979.403h11.706c.302,0,.576-.089.824-.268.247-.179.416-.416.506-.713l1.36-4.532c.135-.455.06-.874-.224-1.259ZM14.716,8.068l-1.345,4.494c-.015.056-.044.099-.087.129s-.092.046-.148.046H2.655l.015-.046c.01-.03.023-.073.038-.129l1.345-4.494c.017-.054.029-.098.043-.144.016-.051.042-.093.082-.122.043-.03.092-.046.148-.046h10.154c.081,0,.147.032.197.095.051.063.063.135.038.216Z"/>
    </g>
  </g>
</svg>